# Blender 4.2.22 LTS
# www.blender.org
o Portal
v -0.500000 -0.500000 0.500000
v -0.500000 0.500000 0.500000
v -0.500000 -0.500000 -0.500000
v -0.500000 0.500000 -0.500000
v 0.500000 -0.500000 0.500000
v 0.500000 0.500000 0.500000
v 0.500000 -0.500000 -0.500000
v 0.500000 0.500000 -0.500000
vn 1.0000 -0.0000 -0.0000
vn -1.0000 -0.0000 -0.0000
vn -0.0000 -0.0000 -1.0000
vn -0.0000 1.0000 -0.0000
vn -0.0000 -1.0000 -0.0000
vt 0.645833 0.645833
vt 0.645833 0.937500
vt 0.354167 0.937500
vt 0.354167 0.645833
vt 0.645833 0.062500
vt 0.645833 0.354167
vt 0.354167 0.354167
vt 0.354167 0.062500
vt 0.937500 0.645833
vt 0.937500 0.354167
vt 0.062500 0.354167
vt 0.062500 0.645833
s 0
f 1/1/1 3/2/1 4/3/1 2/4/1
f 7/5/2 5/6/2 6/7/2 8/8/2
f 5/6/3 1/1/3 2/4/3 6/7/3
f 3/9/4 1/1/4 5/6/4 7/10/4
f 8/11/5 6/7/5 2/4/5 4/12/5
