# Blender 4.2.21 LTS
# www.blender.org
o PortalFrame
v -0.500000 -0.500000 0.540000
v -0.500000 0.500000 0.540000
v -0.500000 -0.500000 -0.500000
v -0.500000 0.500000 -0.500000
v 0.500000 -0.500000 0.540000
v 0.500000 0.500000 0.540000
v 0.500000 -0.500000 -0.500000
v 0.500000 0.500000 -0.500000
v -0.460000 -0.460000 -0.500000
v -0.460000 0.460000 -0.500000
v 0.460000 -0.460000 -0.500000
v 0.460000 0.460000 -0.500000
vn -1.0000 -0.0000 -0.0000
vn 1.0000 -0.0000 -0.0000
vn -0.0000 -1.0000 -0.0000
vn -0.0000 1.0000 -0.0000
vn -0.0000 -0.0000 1.0000
vn -0.0000 -0.0000 -1.0000
vt 0.023322 0.516101
vt 0.023322 0.269711
vt 0.279567 0.269711
vt 0.279567 0.516101
vt 0.592311 0.269711
vt 0.592311 0.516101
vt 0.336066 0.516101
vt 0.336066 0.269711
vt 0.592311 0.023322
vt 0.336066 0.023322
vt 0.279567 0.023322
vt 0.023322 0.023322
vt 0.023322 0.809133
vt 0.023322 0.562744
vt 0.269711 0.562744
vt 0.269711 0.809134
vt 0.602166 0.033177
vt 0.602166 0.259856
vt 0.602166 0.279567
vt 0.602166 0.506245
vt 0.289422 0.033177
vt 0.289422 0.259856
vt 0.289422 0.279567
vt 0.289422 0.506245
s 0
f 1/1/1 2/2/1 4/3/1 3/4/1
f 7/5/2 8/6/2 6/7/2 5/8/2
f 3/9/3 7/5/3 5/8/3 1/10/3
f 8/11/4 4/3/4 2/2/4 6/12/4
f 1/13/5 5/14/5 6/15/5 2/16/5
f 9/17/6 11/18/6 7/5/6 3/9/6
f 11/19/6 12/20/6 8/6/6 7/5/6
f 12/21/6 10/22/6 4/3/6 8/11/6
f 10/23/6 9/24/6 3/4/6 4/3/6
